<?xml version="1.0" encoding="UTF-8"?>
<svg width="16px" height="16px" viewBox="0 0 16 16" version="1.1" xmlns="http://www.w3.org/2000/svg" xmlns:xlink="http://www.w3.org/1999/xlink">
    <!-- Generator: Sketch 53.1 (72631) - https://sketchapp.com -->
    <title>logo</title>
    <desc>Created with Sketch.</desc>
    <g stroke="none" stroke-width="1" fill="none" fill-rule="evenodd">
        <g transform="translate(0.000000, 2.333333)" fill-rule="nonzero">
            <path d="M13.4545455,8.04301075 C13.2542615,8.04301075 13.0909091,7.88020852 13.0909091,7.67741935 C13.0909091,5.35819892 11.6306818,3.28032585 9.45738655,2.50630049 C9.26704545,2.43918011 9.16903418,2.22925058 9.23579564,2.03931452 C9.30397745,1.84937845 9.51136364,1.74941187 9.700284,1.81796026 C12.1633524,2.69338056 13.8181818,5.04830318 13.8181818,7.67741935 C13.8181818,7.88020852 13.6562502,8.04301075 13.4545455,8.04301075 Z" fill="#B0BEC5"></path>
            <path d="M2.54545455,8.04301075 C2.34375018,8.04301075 2.18181818,7.88020852 2.18181818,7.67741935 C2.18181818,5.08971774 3.80255673,2.74764785 6.21448873,1.84937845 C6.40198873,1.7779737 6.612216,1.87508391 6.68039782,2.06502034 C6.75142036,2.25352841 6.65482945,2.46345757 6.46590909,2.53486232 C4.33948873,3.32745314 2.90909091,5.39390112 2.90909091,7.67741935 C2.90909091,7.88020852 2.74715927,8.04301075 2.54545455,8.04301075 Z" fill="#B0BEC5"></path>
            <path d="M15.5156251,2.19354839 L9.81818182,2.19354839 C9.61647745,2.19354839 9.45454545,2.03074615 9.45454545,1.82795699 C9.45454545,1.62516819 9.61647745,1.46236559 9.81818182,1.46236559 L15.5156251,1.46236559 C15.7173295,1.46236559 15.8792615,1.62516819 15.8792615,1.82795699 C15.8792615,2.03074615 15.7173295,2.19354839 15.5156251,2.19354839 Z" fill="#B0BEC5"></path>
            <path d="M6.18181818,2.19354839 L1.09090909,2.19354839 C0.889204727,2.19354839 0.727272727,2.03074615 0.727272727,1.82795699 C0.727272727,1.62516819 0.889204727,1.46236559 1.09090909,1.46236559 L6.18181818,1.46236559 C6.38352291,1.46236559 6.54545455,1.62516819 6.54545455,1.82795699 C6.54545455,2.03074615 6.38352291,2.19354839 6.18181818,2.19354839 Z" fill="#B0BEC5"></path>
            <path d="M16,1.82795699 C16,2.43346774 15.5113636,2.92473118 14.9090909,2.92473118 C14.3068182,2.92473118 13.8181818,2.43346774 13.8181818,1.82795699 C13.8181818,1.22244624 14.3068182,0.731182796 14.9090909,0.731182796 C15.5113636,0.731182796 16,1.22244624 16,1.82795699 Z" fill="#3F51B5"></path>
            <path d="M2.18181818,1.82795699 C2.18181818,2.43346774 1.69318182,2.92473118 1.09090909,2.92473118 C0.488636364,2.92473118 0,2.43346774 0,1.82795699 C0,1.22244624 0.488636364,0.731182796 1.09090909,0.731182796 C1.69318182,0.731182796 2.18181818,1.22244624 2.18181818,1.82795699 Z" fill="#3F51B5"></path>
            <polygon fill="#2196F3" points="15.2727273 11.3333333 11.2727273 11.3333333 11.2727273 7.31182796 15.2727273 7.31182796"></polygon>
            <polygon fill="#2196F3" points="4.72727273 11.3333333 0.727272727 11.3333333 0.727272727 7.31182796 4.72727273 7.31182796"></polygon>
            <polygon fill="#2196F3" points="9.81818182 3.99151555 5.81818182 3.99151555 5.81818182 0 9.81818182 0"></polygon>
        </g>
    </g>
</svg>